<svg id="Layer_1" data-name="Layer 1" xmlns="http://www.w3.org/2000/svg" width="77.34mm" height="27.85mm" viewBox="0 0 219.24 78.94"><defs><style>.cls-1{fill:#fff;}</style></defs><path class="cls-1" d="M16.56,80.65H13.44L11.68,75.3H11.6L9.76,80.65h-3L2,67.18,2.5,67l.6-.14.61-.09.52,0a2.73,2.73,0,0,1,1.62.4,2.24,2.24,0,0,1,.77,1.19L8.6,75h.08l1.29-4L8.91,67c.4-.08.78-.15,1.13-.2a5.53,5.53,0,0,1,1-.08,2.5,2.5,0,0,1,1.58.42,2.15,2.15,0,0,1,.7,1.23L14.82,75h.1l1.47-6.61a2.1,2.1,0,0,1,.75-1.25,2.63,2.63,0,0,1,1.6-.42,5.63,5.63,0,0,1,1.25.11,7.7,7.7,0,0,1,.93.25Z" transform="translate(-2.01 -1.97)"/><path class="cls-1" d="M26.15,72h3.32V66.9l.59-.06a4.43,4.43,0,0,1,.51-.06,4.11,4.11,0,0,1,.47,0,5.09,5.09,0,0,1,.84.07,2.28,2.28,0,0,1,.82.28,1.78,1.78,0,0,1,.63.62,2.12,2.12,0,0,1,.24,1.07V80.55h-4.1V75.22H26.15v5.33H22V66.9l.6-.06a6.6,6.6,0,0,1,1-.08,5.12,5.12,0,0,1,.85.07,2.28,2.28,0,0,1,.82.28,1.81,1.81,0,0,1,.61.62,2.12,2.12,0,0,1,.25,1.07Z" transform="translate(-2.01 -1.97)"/><path class="cls-1" d="M43.2,77.45a3.11,3.11,0,0,1,1.14.17,1.82,1.82,0,0,1,.7.46,1.59,1.59,0,0,1,.33.63,2.35,2.35,0,0,1,.1.69c0,.24,0,.43,0,.58s0,.34,0,.57H35.82V66.86h9.3c0,.27.05.48.06.64s0,.35,0,.58a2.24,2.24,0,0,1-.1.68,1.74,1.74,0,0,1-.35.62,1.88,1.88,0,0,1-.67.45A3.06,3.06,0,0,1,43,70H39.94v2h3.93v3.14H39.94v2.27Z" transform="translate(-2.01 -1.97)"/><path class="cls-1" d="M57.44,71a5.18,5.18,0,0,1-.19,1.47,5.32,5.32,0,0,1-.49,1.16,3.75,3.75,0,0,1-.68.87,3.9,3.9,0,0,1-.74.56l3,5.14a8.19,8.19,0,0,1-1,.4,4.7,4.7,0,0,1-1.32.17,4.13,4.13,0,0,1-1.66-.28,2.55,2.55,0,0,1-1.13-1.09L51.48,76.1h-.26v4.45H47.1V67c.72-.08,1.45-.14,2.2-.17s1.38,0,1.9,0a8.43,8.43,0,0,1,4.7,1A3.62,3.62,0,0,1,57.44,71Zm-4.32.41A2.37,2.37,0,0,0,52.75,70a1.22,1.22,0,0,0-1-.49h-.35l-.16,0v3.88h.51a1.13,1.13,0,0,0,1.09-.59A3,3,0,0,0,53.12,71.45Z" transform="translate(-2.01 -1.97)"/><path class="cls-1" d="M67,77.45a3.11,3.11,0,0,1,1.14.17,1.82,1.82,0,0,1,.7.46,1.59,1.59,0,0,1,.33.63,2.72,2.72,0,0,1,.09.69c0,.24,0,.43,0,.58s0,.34,0,.57H59.62V66.86h9.31c0,.27,0,.48.06.64s0,.35,0,.58a2.24,2.24,0,0,1-.1.68,1.74,1.74,0,0,1-.35.62,1.88,1.88,0,0,1-.67.45,3.06,3.06,0,0,1-1.08.17H63.75v2h3.93v3.14H63.75v2.27Z" transform="translate(-2.01 -1.97)"/><path class="cls-1" d="M88,80.65H84.88L83.13,75.3h-.08l-1.84,5.35h-3L73.46,67.18,74,67l.6-.14.61-.09.52,0a2.67,2.67,0,0,1,1.61.4,2.19,2.19,0,0,1,.78,1.19l2,6.69h.08l1.28-4-1.06-4c.41-.08.79-.15,1.14-.2a5.42,5.42,0,0,1,.94-.08,2.47,2.47,0,0,1,1.58.42,2.16,2.16,0,0,1,.71,1.23L86.27,75h.1l1.47-6.61a2,2,0,0,1,.75-1.25,2.61,2.61,0,0,1,1.6-.42,5.69,5.69,0,0,1,1.25.11,7.7,7.7,0,0,1,.93.25Z" transform="translate(-2.01 -1.97)"/><path class="cls-1" d="M100.88,77.45a3.11,3.11,0,0,1,1.14.17,1.7,1.7,0,0,1,.69.46,1.5,1.5,0,0,1,.34.63,2.72,2.72,0,0,1,.09.69c0,.24,0,.43,0,.58s0,.34,0,.57H93.49V66.86h9.3c0,.27,0,.48.07.64s0,.35,0,.58a2.25,2.25,0,0,1-.11.68,1.58,1.58,0,0,1-.34.62,1.92,1.92,0,0,1-.68.45,3,3,0,0,1-1.08.17H97.61v2h3.94v3.14H97.61v2.27Z" transform="translate(-2.01 -1.97)"/><path class="cls-1" d="M117.32,80.55l-1.12-3.23h-3.39l-1,3.23h-4l4.39-13.37a6.62,6.62,0,0,1,1-.29,7,7,0,0,1,1.43-.13,6.36,6.36,0,0,1,.72,0,2.4,2.4,0,0,1,.8.22,2.34,2.34,0,0,1,.73.55,2.88,2.88,0,0,1,.56,1l4,12Zm-2.39-8.41c-.07-.28-.14-.63-.23-1a5.74,5.74,0,0,1-.15-1h-.07a8.92,8.92,0,0,1-.16,1c-.08.41-.16.74-.22,1l-.72,2.59h2.23Z" transform="translate(-2.01 -1.97)"/><path class="cls-1" d="M122.52,66.9l.59-.06a6.86,6.86,0,0,1,1-.08,5.15,5.15,0,0,1,.86.07,2.28,2.28,0,0,1,.82.28,1.81,1.81,0,0,1,.61.62,2.12,2.12,0,0,1,.24,1.07v8.48h3a3.1,3.1,0,0,1,1.14.18,1.51,1.51,0,0,1,.67.46,1.55,1.55,0,0,1,.31.63,2.63,2.63,0,0,1,.09.67c0,.11,0,.24,0,.4s0,.3,0,.44a3.91,3.91,0,0,0,0,.49h-9.24Z" transform="translate(-2.01 -1.97)"/><path class="cls-1" d="M133.36,66.9l.59-.06a3.92,3.92,0,0,1,.52-.06,4.19,4.19,0,0,1,.48,0,5.12,5.12,0,0,1,.85.07,2.22,2.22,0,0,1,.82.28,1.81,1.81,0,0,1,.61.62,2,2,0,0,1,.25,1.07v8.48h3a3,3,0,0,1,1.13.18,1.51,1.51,0,0,1,.67.46,1.57,1.57,0,0,1,.32.63,3.14,3.14,0,0,1,.08.67c0,.11,0,.24,0,.4s0,.3,0,.44a3.93,3.93,0,0,0,0,.49h-9.24Z" transform="translate(-2.01 -1.97)"/><path class="cls-1" d="M158.9,76.43a4.19,4.19,0,0,1-.44,2,3.24,3.24,0,0,1-1.23,1.26,5.53,5.53,0,0,1-1.9.65,13.94,13.94,0,0,1-2.41.19h-4.65V67c.86-.09,1.63-.16,2.34-.2s1.29-.06,1.78-.06a12.59,12.59,0,0,1,2.82.26,5.37,5.37,0,0,1,1.83.74,2.66,2.66,0,0,1,1,1.15,3.65,3.65,0,0,1,.3,1.5,3.16,3.16,0,0,1-.49,1.76,2.85,2.85,0,0,1-1.35,1.09,5.35,5.35,0,0,1,.89.39,2.92,2.92,0,0,1,1.31,1.55A3.34,3.34,0,0,1,158.9,76.43Zm-4.73-5.74a1.13,1.13,0,0,0-1.29-1.2h-.37l-.14,0V72.2h.53a1,1,0,0,0,1-.47A1.89,1.89,0,0,0,154.17,70.69Zm-1.15,7a2,2,0,0,0,1.26-.37,1.38,1.38,0,0,0,.46-1.14,1.48,1.48,0,0,0-.35-1,1.68,1.68,0,0,0-1.26-.38h-.76v2.92Z" transform="translate(-2.01 -1.97)"/><path class="cls-1" d="M167.92,77.45a3.11,3.11,0,0,1,1.14.17,1.7,1.7,0,0,1,.69.46,1.5,1.5,0,0,1,.34.63,2.72,2.72,0,0,1,.09.69c0,.24,0,.43,0,.58s0,.34,0,.57h-9.61V66.86h9.3c0,.27,0,.48.07.64s0,.35,0,.58a2.25,2.25,0,0,1-.11.68,1.58,1.58,0,0,1-.34.62,1.92,1.92,0,0,1-.68.45,3,3,0,0,1-1.08.17h-3.06v2h3.94v3.14h-3.94v2.27Z" transform="translate(-2.01 -1.97)"/><path class="cls-1" d="M171.81,66.9l.59-.06a6.86,6.86,0,0,1,1-.08,5.15,5.15,0,0,1,.86.07,2.28,2.28,0,0,1,.82.28,1.81,1.81,0,0,1,.61.62,2.12,2.12,0,0,1,.24,1.07v8.48h3a3.1,3.1,0,0,1,1.14.18,1.51,1.51,0,0,1,.67.46,1.55,1.55,0,0,1,.31.63,2.63,2.63,0,0,1,.09.67c0,.11,0,.24,0,.4s0,.3,0,.44a3.91,3.91,0,0,0,0,.49h-9.24Z" transform="translate(-2.01 -1.97)"/><path class="cls-1" d="M194.13,73.69a9.93,9.93,0,0,1-.38,2.83,6.37,6.37,0,0,1-1.17,2.29,5.32,5.32,0,0,1-2.05,1.54,7.19,7.19,0,0,1-3,.56,7,7,0,0,1-3-.56,5.49,5.49,0,0,1-2-1.53,6.12,6.12,0,0,1-1.14-2.28,10.71,10.71,0,0,1-.35-2.83,9.45,9.45,0,0,1,.39-2.74,6.37,6.37,0,0,1,1.22-2.27,5.84,5.84,0,0,1,2.06-1.54,8,8,0,0,1,5.85,0,5.23,5.23,0,0,1,2,1.49,6.15,6.15,0,0,1,1.15,2.25A9.71,9.71,0,0,1,194.13,73.69Zm-4.18,0a9.08,9.08,0,0,0-.12-1.49,4.48,4.48,0,0,0-.4-1.25,2.41,2.41,0,0,0-.7-.86,1.73,1.73,0,0,0-1-.31,1.94,1.94,0,0,0-1.12.31,2.4,2.4,0,0,0-.74.86,4.48,4.48,0,0,0-.42,1.25,8.1,8.1,0,0,0-.13,1.49,8.27,8.27,0,0,0,.13,1.52,5.06,5.06,0,0,0,.41,1.28,2.29,2.29,0,0,0,.72.87,1.95,1.95,0,0,0,2.17,0,2.39,2.39,0,0,0,.72-.87,4.69,4.69,0,0,0,.4-1.28A9.27,9.27,0,0,0,190,73.71Z" transform="translate(-2.01 -1.97)"/><path class="cls-1" d="M203.52,74.18V66.9l.53-.06a3.5,3.5,0,0,1,.48-.06,3.78,3.78,0,0,1,.46,0,5.12,5.12,0,0,1,.85.07,2.28,2.28,0,0,1,.82.28,1.87,1.87,0,0,1,.61.61,2.05,2.05,0,0,1,.25,1.06V80.55h-3.31L200,73.77v6.78h-4V66.9l.77-.09a8.5,8.5,0,0,1,1,0,2.82,2.82,0,0,1,1.47.31,2.47,2.47,0,0,1,.84.91Z" transform="translate(-2.01 -1.97)"/><path class="cls-1" d="M216.64,77.83a4.38,4.38,0,0,0,.75-.06V73.16h1.8a3.19,3.19,0,0,1,1.16.17,1.63,1.63,0,0,1,.61.44,1.22,1.22,0,0,1,.25.62c0,.23,0,.45,0,.67v4.55a3.73,3.73,0,0,1-.61.41,4.68,4.68,0,0,1-1,.41,9.62,9.62,0,0,1-1.46.34,11.64,11.64,0,0,1-2,.14,7.88,7.88,0,0,1-3.05-.53A5.74,5.74,0,0,1,211,78.9a6.07,6.07,0,0,1-1.27-2.25,9.28,9.28,0,0,1-.42-2.86,9,9,0,0,1,.43-2.82,6.08,6.08,0,0,1,3.49-3.82,7.77,7.77,0,0,1,3.06-.56,9.19,9.19,0,0,1,1.42.11,8.15,8.15,0,0,1,1.18.29,5.54,5.54,0,0,1,.9.38,6.27,6.27,0,0,1,.6.36,2.31,2.31,0,0,1,.48.51,1.25,1.25,0,0,1,.19.7,1.88,1.88,0,0,1-.36,1,7.27,7.27,0,0,1-1,1.12,6.47,6.47,0,0,0-1.41-1,4,4,0,0,0-1.69-.34,3,3,0,0,0-1.5.35,2.71,2.71,0,0,0-1,.9,3.56,3.56,0,0,0-.52,1.25,6.29,6.29,0,0,0-.16,1.44,7.06,7.06,0,0,0,.16,1.54,3.69,3.69,0,0,0,.52,1.32,2.68,2.68,0,0,0,1,.92A3,3,0,0,0,216.64,77.83Z" transform="translate(-2.01 -1.97)"/><path class="cls-1" d="M156.82,13.14C153.37,7.56,147.5,2.7,140.56,2.7a48.66,48.66,0,0,0-8.6.75l1.17,1.49c4.67.6,7.13,4.61,9.23,8.29L131.71,28.36c-3.33-5.07-6.72-10.12-10-15.22C117.4,6.48,111.64,2.7,105.39,2.7a48.85,48.85,0,0,0-8.54.75L98,4.94c4.67.6,7.13,4.61,9.23,8.29L95.34,30.16c-3.22-2.23-7.27-2.7-11.11-2.7a47.77,47.77,0,0,0-11.79,1.45L73.6,30.4c6.26.07,12,3.66,15.55,8.57L87.4,41.46a19.12,19.12,0,0,1-15.6,8.36c-12.36,0-17.59-12-17.59-22.58,0-9,5.23-18.22,15.32-18.22,5,0,10.92,2.05,13.39,6.63A38.82,38.82,0,0,1,90,14.9C86.07,6.8,77.84,2,68.57,2c-15.79,0-27.9,11.84-27.9,27.41,0,15.18,11.56,27.88,27.29,27.88,10.72,0,18.5-4.58,24.45-13.23,3.77,6.33,9,12.86,17.18,12.86,9.14,0,13.22-6.21,17.87-12.87,1,1.48,1.91,3,2.91,4.44,3.26,4.75,8.31,8.43,14.33,8.43,9.13,0,13.27-6.16,17.88-12.85,3.77,5.7,7.67,12.34,15.51,12.34h5.41ZM113.13,48c-5.84,0-9.74-10.69-13.43-14.36l10.85-15.42L124.19,39C121.79,42.53,117.91,48,113.13,48Zm35.12,0c-2.67,0-4.85-1.87-6.23-4l-7-10.7,10.68-15.11,13.54,20.69C157.19,42.67,153,48,148.25,48Z" transform="translate(-2.01 -1.97)"/></svg>